<?xml version="1.0" encoding="utf-8"?>
<!-- Generator: Adobe Illustrator 21.0.2, SVG Export Plug-In . SVG Version: 6.00 Build 0)  -->
<svg version="1.1" xmlns="http://www.w3.org/2000/svg" xmlns:xlink="http://www.w3.org/1999/xlink" x="0px" y="0px"
	 viewBox="0 0 1920 791" style="enable-background:new 0 0 1920 791;" xml:space="preserve">
<style type="text/css">
	.st0{fill:#5EC7F5;}
	.st1{fill:#4D944F;}
	.st2{fill:#4D4D4D;}
	.st3{fill:none;stroke:#FFFF00;stroke-width:25;stroke-miterlimit:10;stroke-dasharray:75,50,0,0,0,0;}
	.st4{fill:#0071BC;}
	.st5{fill:#B3B3B3;}
	.st6{fill:#1A1A1A;}
</style>
<g id="background">
	<rect id="sky_1_" class="st0" width="1920" height="791"/>
	<rect id="grass_1_" y="225" class="st1" width="1920" height="566"/>
	<rect id="road_1_" y="368" class="road" width="1920" height="423"/>
</g>
<g id="line">
	<line id="dotted-line" class="st3" x1="-124" y1="579.5" x2="2088" y2="579.5"/>
</g>
<g id="car">
	<g id="wagon">
		<path id="body" class="st4" d="M137,665l749.5-0.5L886,582c0,0-5.4-41.7-39-47c-146-23-146-23-146-23s-58-64-98-94s-312,0-312,0
			s-116,76-136,129S137,665,137,665z"/>
		<path id="rear-bumper" class="st5" d="M162,674h-36c-6.6,0-12-5.4-12-12v-23c0-6.6,5.4-12,12-12h36c6.6,0,12,5.4,12,12v23
			C174,668.6,168.6,674,162,674z"/>
		<path id="front-bumper" class="st5" d="M900,674h-36c-6.6,0-12-5.4-12-12v-23c0-6.6,5.4-12,12-12h36c6.6,0,12,5.4,12,12v23
			C912,668.6,906.6,674,900,674z"/>
		<path id="rear-windshield" d="M270.7,432L203,512h-25.1C177.9,512,214.5,465,270.7,432z"/>
		<rect id="rear-window" x="295" y="432" width="147" height="80"/>
		<polygon id="front-window" points="601.8,432.5 461,432 461,512 684,512 		"/>
	</g>
	<g id="front-wheel_1_">
		<circle id="front-tire" class="st6" cx="703" cy="665" r="73"/>
		<circle id="front-rim" class="st5" cx="703" cy="665" r="41"/>
	</g>
	<g id="rear-wheel_1_">
		<circle id="rear-tire_2_" class="st6" cx="263" cy="665" r="73"/>
		<circle id="rear-rim_2_" class="st5" cx="263" cy="665" r="41"/>
	</g>
</g>
</svg>
